<?xml version="1.0" standalone="no"?><!DOCTYPE svg PUBLIC "-//W3C//DTD SVG 1.1//EN" "http://www.w3.org/Graphics/SVG/1.1/DTD/svg11.dtd"><svg t="1615777720009" class="icon" viewBox="0 0 1024 1024" version="1.1" xmlns="http://www.w3.org/2000/svg" p-id="2114" xmlns:xlink="http://www.w3.org/1999/xlink" width="200" height="200"><defs><style type="text/css"></style></defs><path d="M512.128 289.152l-5.376-3.52c-51.456-38.656-182.336-40.256-253.824 31.296a208 208 0 0 0 0 294.144l192.32 192.32 8 7.104 8.256 5.76c16.704 10.56 35.072 15.616 53.504 15.232l5.568-0.384-3.712-0.192c28.928 3.328 57.984-6.464 79.04-27.52l192.32-192.32 8.96-9.6a208.256 208.256 0 0 0-8.96-284.544 208.192 208.192 0 0 0-259.712-27.904 14.72 14.72 0 0 1-16.384 0.128z m230.848 73.024a144 144 0 0 1 6.72 196.48l-7.488 7.936-191.552 191.552a31.808 31.808 0 0 1-20.608 9.344l-13.184-0.192a31.936 31.936 0 0 1-23.04-6.272l-4.864-4.288L298.176 565.76a144 144 0 0 1 196.416-210.368l4.032 3.712a32 32 0 0 0 43.776 0 144.128 144.128 0 0 1 200.576 3.008z" fill="#FF7960" p-id="2115"></path></svg>