<?xml version="1.0" standalone="no"?><!DOCTYPE svg PUBLIC "-//W3C//DTD SVG 1.1//EN" "http://www.w3.org/Graphics/SVG/1.1/DTD/svg11.dtd"><svg t="1617085806383" class="icon" viewBox="0 0 1024 1024" version="1.1" xmlns="http://www.w3.org/2000/svg" p-id="1382" xmlns:xlink="http://www.w3.org/1999/xlink" width="200" height="200"><defs><style type="text/css"></style></defs><path d="M512 61.258c-248.938 0-450.742 201.804-450.742 450.742s201.804 450.742 450.742 450.742 450.742-201.804 450.742-450.742-201.804-450.742-450.742-450.742zM828.807 392.993l-320.398 320.398c-11.374 11.376-26.283 17.062-41.193 17.062s-29.818-5.686-41.193-17.062l-230.832-230.832c-22.75-22.75-22.75-59.633 0-82.383s59.633-22.75 82.383 0l189.641 189.641 279.206-279.206c22.75-22.75 59.633-22.75 82.383 0s22.75 59.633 0 82.383z" fill="#ffffff" p-id="1383"></path></svg>